<svg width="618.4850219726562px" height="121.40498046875px" xmlns="http://www.w3.org/2000/svg" viewBox="-59.242510986328114 14.297509765625001 618.4850219726562 121.40498046875" style="background: none;" preserveAspectRatio="xMidYMid"><defs><filter id="editing-extrusion" x="-100%" y="-100%" width="300%" height="300%"><feFlood result="color1" flood-color="#211f1f"></feFlood><feConvolveMatrix order="8,8" divisor="1" kernelMatrix="1 0 0 0 0 0 0 0 0 1 0 0 0 0 0 0 0 0 1 0 0 0 0 0 0 0 0 1 0 0 0 0 0 0 0 0 1 0 0 0 0 0 0 0 0 1 0 0 0 0 0 0 0 0 1 0 0 0 0 0 0 0 0 1" in="SourceAlpha" result="extrude"></feConvolveMatrix><feComposite in="color1" in2="extrude" result="comp-extrude" operator="in"></feComposite><feOffset dx="4" dy="4" in="comp-extrude" result="offset-extrude"></feOffset><feMerge><feMergeNode in="offset-extrude"></feMergeNode><feMergeNode in="SourceGraphic"></feMergeNode></feMerge></filter></defs><g filter="url(#editing-extrusion)"><g transform="translate(29.739990830421448, 104.76000022888184)"><path d="M34.50-13.25L34.50-13.25L34.50-13.25Q36.16-12.03 36.16-9.44L36.16-9.44L36.16-9.44Q36.16-6.85 35.04-5.02L35.04-5.02L35.04-5.02Q33.92-3.20 31.74-1.79L31.74-1.79L31.74-1.79Q27.07 1.22 18.91 1.22L18.91 1.22L18.91 1.22Q10.75 1.22 6.30-3.04L6.30-3.04L6.30-3.04Q1.86-7.30 1.86-14.85L1.86-14.85L1.86-14.85Q1.86-25.54 7.42-33.66L7.42-33.66L7.42-33.66Q11.65-39.68 19.20-42.24L19.20-42.24L19.20-42.24Q23.10-43.52 26.94-43.52L26.94-43.52L26.94-43.52Q30.78-43.52 33.15-43.01L33.15-43.01L33.15-43.01Q35.52-42.50 37.31-41.47L37.31-41.47L37.31-41.47Q41.22-39.23 41.22-35.65L41.22-35.65L41.22-35.65Q41.22-32.38 38.14-29.95L38.14-29.95L38.14-29.95Q35.33-27.78 33.02-27.78L33.02-27.78L33.02-27.78Q30.72-27.78 29.76-28.10L29.76-28.10L29.76-28.10Q30.02-30.40 30.02-31.90L30.02-31.90L30.02-31.90Q30.02-33.41 29.95-34.50L29.95-34.50L29.95-34.50Q29.89-35.58 29.57-36.61L29.57-36.61L29.57-36.61Q28.93-38.98 26.98-38.98L26.98-38.98L26.98-38.98Q25.02-38.98 23.07-37.15L23.07-37.15L23.07-37.15Q21.12-35.33 19.46-32.26L19.46-32.26L19.46-32.26Q15.68-25.28 15.68-17.02L15.68-17.02L15.68-17.02Q15.68-13.06 17.92-10.78L17.92-10.78L17.92-10.78Q20.16-8.51 24.96-8.51L24.96-8.51L24.96-8.51Q28.54-8.51 31.94-10.88L31.94-10.88L31.94-10.88Q33.41-11.90 34.50-13.25ZM73.66-7.10L73.66-7.10L73.66-7.10Q73.66-4.29 76.54-3.46L76.54-3.46L76.54-3.46Q75.84-1.09 73.09 0.19L73.09 0.19L73.09 0.19Q70.78 1.28 68.26 1.28L68.26 1.28L68.26 1.28Q65.73 1.28 64.42 0.61L64.42 0.61L64.42 0.61Q63.10-0.06 62.40-1.15L62.40-1.15L62.40-1.15Q61.25-2.82 61.25-5.95L61.25-5.95L61.25-5.95Q61.25-7.81 62.27-12.93L62.27-12.93L63.17-17.79L63.17-17.79Q64.26-23.36 64.26-25.41L64.26-25.41L64.26-25.41Q64.26-28.99 62.27-28.99L62.27-28.99L62.27-28.99Q59.78-28.99 58.18-25.34L58.18-25.34L58.18-25.34Q57.54-23.94 57.09-21.82L57.09-21.82L52.74 0L39.87 1.28L48.90-44.80L61.76-46.08L61.25-43.52L61.25-43.52Q59.46-33.66 57.92-30.34L57.92-30.34L57.92-30.34Q61.50-33.92 68.10-33.92L68.10-33.92L68.10-33.92Q75.07-33.92 76.35-29.31L76.35-29.31L76.35-29.31Q76.80-27.84 76.80-26.56L76.80-26.56L76.80-26.56Q76.80-25.28 76.70-24.29L76.70-24.29L76.70-24.29Q76.61-23.30 76.29-21.50L76.29-21.50L75.46-16.90L73.98-9.66L73.98-9.66Q73.66-8.19 73.66-7.10ZM101.76-17.98L101.76-17.98L101.76-17.98Q104.06-22.08 104.06-26.24L104.06-26.24L104.06-26.24Q104.06-28.99 102.08-28.99L102.08-28.99L102.08-28.99Q100.54-28.99 98.94-26.37L98.94-26.37L98.94-26.37Q97.28-23.74 96.77-20.35L96.77-20.35L93.44 0L80.19 1.28L86.72-32.64L97.28-33.92L96.13-27.46L96.13-27.46Q99.26-33.92 106.30-33.92L106.30-33.92L106.30-33.92Q110.02-33.92 112.03-32L112.03-32L112.03-32Q114.05-30.08 114.05-26.14L114.05-26.14L114.05-26.14Q114.05-22.21 111.46-19.71L111.46-19.71L111.46-19.71Q108.86-17.22 104.45-17.22L104.45-17.22L104.45-17.22Q102.53-17.22 101.76-17.98ZM130.43-3.52L130.43-3.52L130.43-3.52Q128.45 1.28 122.11 1.28L122.11 1.28L122.11 1.28Q118.85 1.28 116.80-0.96L116.80-0.96L116.80-0.96Q115.07-2.94 115.07-4.93L115.07-4.93L115.07-4.93Q115.07-10.11 117.44-20.22L117.44-20.22L119.81-32.64L132.80-33.92L128.90-13.70L128.90-13.70Q127.81-8.96 127.81-7.30L127.81-7.30L127.81-7.30Q127.81-3.65 130.43-3.52ZM120.96-41.54L120.96-41.54L120.96-41.54Q120.96-44.03 123.04-45.38L123.04-45.38L123.04-45.38Q125.12-46.72 128.13-46.72L128.13-46.72L128.13-46.72Q131.14-46.72 132.96-45.38L132.96-45.38L132.96-45.38Q134.78-44.03 134.78-41.54L134.78-41.54L134.78-41.54Q134.78-39.04 132.77-37.76L132.77-37.76L132.77-37.76Q130.75-36.48 127.74-36.48L127.74-36.48L127.74-36.48Q124.74-36.48 122.85-37.76L122.85-37.76L122.85-37.76Q120.96-39.04 120.96-41.54ZM155.01-22.46L155.01-22.46L155.01-22.46Q155.90-24.83 155.90-26.88L155.90-26.88L155.90-26.88Q155.90-30.66 152.83-30.66L152.83-30.66L152.83-30.66Q151.23-30.66 149.92-29.22L149.92-29.22L149.92-29.22Q148.61-27.78 148.61-25.98L148.61-25.98L148.61-25.98Q148.61-24.70 149.63-23.68L149.63-23.68L149.63-23.68Q151.10-22.27 154.88-19.97L154.88-19.97L154.88-19.97Q158.66-17.66 160.10-15.78L160.10-15.78L160.10-15.78Q161.54-13.89 161.54-11.30L161.54-11.30L161.54-11.30Q161.54-8.70 160.29-6.34L160.29-6.34L160.29-6.34Q159.04-3.97 156.80-2.30L156.80-2.30L156.80-2.30Q152.00 1.28 144.32 1.28L144.32 1.28L144.32 1.28Q140.16 1.28 136.96-0.90L136.96-0.90L136.96-0.90Q133.76-3.01 133.76-5.50L133.76-5.50L133.76-5.50Q133.76-8 135.58-9.47L135.58-9.47L135.58-9.47Q137.41-10.94 140.10-10.94L140.10-10.94L140.10-10.94Q142.78-10.94 144.45-9.92L144.45-9.92L144.45-9.92Q143.62-7.81 143.62-6.40L143.62-6.40L143.62-6.40Q143.62-2.18 147.20-2.18L147.20-2.18L147.20-2.18Q148.74-2.18 149.76-3.14L149.76-3.14L149.76-3.14Q150.78-4.10 150.78-5.76L150.78-5.76L150.78-5.76Q150.78-9.02 145.28-12.48L145.28-12.48L145.28-12.48Q140.80-15.42 139.78-16.58L139.78-16.58L139.78-16.58Q138.05-18.62 138.05-21.18L138.05-21.18L138.05-21.18Q138.05-23.74 139.26-26.18L139.26-26.18L139.26-26.18Q140.48-28.61 142.72-30.34L142.72-30.34L142.72-30.34Q147.39-33.92 155.52-33.92L155.52-33.92L155.52-33.92Q159.68-33.92 162.14-32.26L162.14-32.26L162.14-32.26Q164.61-30.59 164.61-27.78L164.61-27.78L164.61-27.78Q164.61-24.96 162.91-23.36L162.91-23.36L162.91-23.36Q161.22-21.76 158.14-21.76L158.14-21.76L158.14-21.76Q156.03-21.76 155.01-22.46ZM168.00-6.40L168.00-6.40L168.00-6.40Q168.00-8.13 168.90-12.48L168.90-12.48L172.29-29.76L168.51-29.76L168.77-31.68L168.77-31.68Q176.45-33.98 183.87-39.62L183.87-39.62L186.94-39.62L185.41-32.64L190.40-32.64L189.82-29.76L184.90-29.76L181.63-12.48L181.63-12.48Q180.80-8.51 180.80-7.17L180.80-7.17L180.80-7.17Q180.80-4.10 183.49-3.46L183.49-3.46L183.49-3.46Q182.85-1.28 180.54 0L180.54 0L180.54 0Q178.24 1.28 174.98 1.28L174.98 1.28L174.98 1.28Q171.71 1.28 169.86-0.77L169.86-0.77L169.86-0.77Q168.00-2.82 168.00-6.40ZM205.44-3.52L205.44-3.52L205.44-3.52Q203.46 1.28 197.12 1.28L197.12 1.28L197.12 1.28Q193.86 1.28 191.81-0.96L191.81-0.96L191.81-0.96Q190.08-2.94 190.08-4.93L190.08-4.93L190.08-4.93Q190.08-10.11 192.45-20.22L192.45-20.22L194.82-32.64L207.81-33.92L203.90-13.70L203.90-13.70Q202.82-8.96 202.82-7.30L202.82-7.30L202.82-7.30Q202.82-3.65 205.44-3.52ZM195.97-41.54L195.97-41.54L195.97-41.54Q195.97-44.03 198.05-45.38L198.05-45.38L198.05-45.38Q200.13-46.72 203.14-46.72L203.14-46.72L203.14-46.72Q206.14-46.72 207.97-45.38L207.97-45.38L207.97-45.38Q209.79-44.03 209.79-41.54L209.79-41.54L209.79-41.54Q209.79-39.04 207.78-37.76L207.78-37.76L207.78-37.76Q205.76-36.48 202.75-36.48L202.75-36.48L202.75-36.48Q199.74-36.48 197.86-37.76L197.86-37.76L197.86-37.76Q195.97-39.04 195.97-41.54ZM236.80-10.82L236.80-10.82L236.80-10.82Q238.40-9.73 238.40-7.33L238.40-7.33L238.40-7.33Q238.40-4.93 237.18-3.39L237.18-3.39L237.18-3.39Q235.97-1.86 233.98-0.83L233.98-0.83L233.98-0.83Q229.89 1.28 225.47 1.28L225.47 1.28L225.47 1.28Q221.06 1.28 218.46 0.32L218.46 0.32L218.46 0.32Q215.87-0.64 214.14-2.43L214.14-2.43L214.14-2.43Q210.75-5.82 210.75-12.03L210.75-12.03L210.75-12.03Q210.75-21.70 216.00-27.58L216.00-27.58L216.00-27.58Q221.63-33.92 231.42-33.92L231.42-33.92L231.42-33.92Q237.50-33.92 240.51-31.36L240.51-31.36L240.51-31.36Q242.75-29.44 242.75-26.30L242.75-26.30L242.75-26.30Q242.75-15.04 223.30-15.04L223.30-15.04L223.30-15.04Q223.04-13.38 223.04-11.97L223.04-11.97L223.04-11.97Q223.04-9.02 224.35-7.90L224.35-7.90L224.35-7.90Q225.66-6.78 228.10-6.78L228.10-6.78L228.10-6.78Q230.53-6.78 233.12-7.90L233.12-7.90L233.12-7.90Q235.71-9.02 236.80-10.82ZM223.74-17.79L223.74-17.79L223.74-17.79Q228.29-17.79 230.91-20.61L230.91-20.61L230.91-20.61Q233.54-23.30 233.54-27.58L233.54-27.58L233.54-27.58Q233.54-29.06 232.99-29.86L232.99-29.86L232.99-29.86Q232.45-30.66 231.36-30.66L231.36-30.66L231.36-30.66Q230.27-30.66 229.34-30.24L229.34-30.24L229.34-30.24Q228.42-29.82 227.46-28.42L227.46-28.42L227.46-28.42Q225.09-25.22 223.74-17.79ZM254.85-29.50L248.06-29.50L248.06-29.50Q250.43-37.70 250.56-46.34L250.56-46.34L252.42-46.59L252.42-46.59Q253.38-46.72 254.08-46.72L254.08-46.72L254.08-46.72Q256.90-46.72 258.43-45.34L258.43-45.34L258.43-45.34Q259.97-43.97 259.97-41.54L259.97-41.54L259.97-41.54Q259.97-38.98 258.82-36.16L258.82-36.16L258.82-36.16Q256.77-31.17 254.85-29.50L254.85-29.50ZM278.34-22.46L278.34-22.46L278.34-22.46Q279.23-24.83 279.23-26.88L279.23-26.88L279.23-26.88Q279.23-30.66 276.16-30.66L276.16-30.66L276.16-30.66Q274.56-30.66 273.25-29.22L273.25-29.22L273.25-29.22Q271.94-27.78 271.94-25.98L271.94-25.98L271.94-25.98Q271.94-24.70 272.96-23.68L272.96-23.68L272.96-23.68Q274.43-22.27 278.21-19.97L278.21-19.97L278.21-19.97Q281.98-17.66 283.42-15.78L283.42-15.78L283.42-15.78Q284.86-13.89 284.86-11.30L284.86-11.30L284.86-11.30Q284.86-8.70 283.62-6.34L283.62-6.34L283.62-6.34Q282.37-3.97 280.13-2.30L280.13-2.30L280.13-2.30Q275.33 1.28 267.65 1.28L267.65 1.28L267.65 1.28Q263.49 1.28 260.29-0.90L260.29-0.90L260.29-0.90Q257.09-3.01 257.09-5.50L257.09-5.50L257.09-5.50Q257.09-8 258.91-9.47L258.91-9.47L258.91-9.47Q260.74-10.94 263.42-10.94L263.42-10.94L263.42-10.94Q266.11-10.94 267.78-9.92L267.78-9.92L267.78-9.92Q266.94-7.81 266.94-6.40L266.94-6.40L266.94-6.40Q266.94-2.18 270.53-2.18L270.53-2.18L270.53-2.18Q272.06-2.18 273.09-3.14L273.09-3.14L273.09-3.14Q274.11-4.10 274.11-5.76L274.11-5.76L274.11-5.76Q274.11-9.02 268.61-12.48L268.61-12.48L268.61-12.48Q264.13-15.42 263.10-16.58L263.10-16.58L263.10-16.58Q261.38-18.62 261.38-21.18L261.38-21.18L261.38-21.18Q261.38-23.74 262.59-26.18L262.59-26.18L262.59-26.18Q263.81-28.61 266.05-30.34L266.05-30.34L266.05-30.34Q270.72-33.92 278.85-33.92L278.85-33.92L278.85-33.92Q283.01-33.92 285.47-32.26L285.47-32.26L285.47-32.26Q287.94-30.59 287.94-27.78L287.94-27.78L287.94-27.78Q287.94-24.96 286.24-23.36L286.24-23.36L286.24-23.36Q284.54-21.76 281.47-21.76L281.47-21.76L281.47-21.76Q279.36-21.76 278.34-22.46ZM302.85-0.32L302.85-0.32L310.91-42.24L310.91-42.24Q318.46-42.88 323.33-42.88L323.33-42.88L323.33-42.88Q328.19-42.88 331.33-42.46L331.33-42.46L331.33-42.46Q334.46-42.05 336.58-40.96L336.58-40.96L336.58-40.96Q340.80-38.91 340.80-33.28L340.80-33.28L340.80-33.28Q340.80-30.02 337.98-27.26L337.98-27.26L337.98-27.26Q335.36-24.77 332.48-24.19L332.48-24.19L332.48-24.19Q335.55-23.68 337.73-21.38L337.73-21.38L337.73-21.38Q340.03-18.94 340.03-15.17L340.03-15.17L340.03-15.17Q340.03-7.87 334.59-3.62L334.59-3.62L334.59-3.62Q329.15 0.64 318.46 0.64L318.46 0.64L318.46 0.64Q311.10 0.64 302.85-0.32ZM320.26-20.61L317.06-4.03L317.06-4.03Q317.63-3.97 317.76-3.97L317.76-3.97L318.34-3.97L318.34-3.97Q323.58-3.97 325.82-7.42L325.82-7.42L325.82-7.42Q327.49-10.11 327.49-15.04L327.49-15.04L327.49-15.04Q327.49-17.66 325.79-19.07L325.79-19.07L325.79-19.07Q324.10-20.48 320.26-20.61L320.26-20.61ZM329.98-33.22L329.98-33.22L329.98-33.22Q329.98-38.53 324.86-38.53L324.86-38.53L324.29-38.53L324.29-38.53Q324.03-38.53 323.65-38.46L323.65-38.46L321.09-24.96L321.73-24.96L321.73-24.96Q329.98-25.15 329.98-33.22ZM359.55-3.52L359.55-3.52L359.55-3.52Q357.57 1.28 351.23 1.28L351.23 1.28L351.23 1.28Q348.03 1.28 345.98-0.96L345.98-0.96L345.98-0.96Q344.32-2.82 344.32-4.93L344.32-4.93L344.32-4.93Q344.32-9.73 346.56-20.22L346.56-20.22L351.23-44.80L364.22-46.08L358.02-13.70L358.02-13.70Q356.93-8.96 356.93-7.30L356.93-7.30L356.93-7.30Q356.93-3.65 359.55-3.52ZM378.94 1.28L378.94 1.28L378.94 1.28Q364.86 1.28 364.86-11.97L364.86-11.97L364.86-11.97Q364.86-21.38 370.05-27.46L370.05-27.46L370.05-27.46Q375.55-33.92 385.09-33.92L385.09-33.92L385.09-33.92Q392-33.92 395.52-30.72L395.52-30.72L395.52-30.72Q399.04-27.52 399.04-20.80L399.04-20.80L399.04-20.80Q399.04-10.56 393.54-4.61L393.54-4.61L393.54-4.61Q388.16 1.28 378.94 1.28ZM380.61-26.56L380.61-26.56L380.61-26.56Q379.84-24.83 379.23-22.24L379.23-22.24L379.23-22.24Q378.62-19.65 377.86-15.55L377.86-15.55L377.86-15.55Q377.09-11.46 377.09-6.40L377.09-6.40L377.09-6.40Q377.09-4.74 377.63-3.65L377.63-3.65L377.63-3.65Q378.18-2.56 379.65-2.56L379.65-2.56L379.65-2.56Q381.12-2.56 382.05-3.26L382.05-3.26L382.05-3.26Q382.98-3.97 383.68-5.63L383.68-5.63L383.68-5.63Q384.96-8.58 385.98-14.05L385.98-14.05L385.98-14.05Q387.01-19.52 387.10-21.89L387.10-21.89L387.10-21.89Q387.20-24.26 387.20-26.02L387.20-26.02L387.20-26.02Q387.20-27.78 386.69-28.93L386.69-28.93L386.69-28.93Q386.18-30.08 384.74-30.08L384.74-30.08L384.74-30.08Q383.30-30.08 382.34-29.18L382.34-29.18L382.34-29.18Q381.38-28.29 380.61-26.56ZM407.36-26.75L407.36-26.75L407.36-26.75Q409.54-29.82 412.83-31.87L412.83-31.87L412.83-31.87Q416.13-33.92 420.16-33.92L420.16-33.92L420.16-33.92Q424.19-33.92 426.11-32.64L426.11-32.64L438.66-33.92L434.30-9.34L434.30-9.34Q432.06 3.20 427.33 8.13L427.33 8.13L427.33 8.13Q422.78 12.80 413.95 12.80L413.95 12.80L413.95 12.80Q407.23 12.80 403.39 10.69L403.39 10.69L403.39 10.69Q399.55 8.58 399.55 5.06L399.55 5.06L399.55 5.06Q399.55 2.43 401.54 0.93L401.54 0.93L401.54 0.93Q403.52-0.58 406.59-0.58L406.59-0.58L406.59-0.58Q409.28-0.58 411.33 0.64L411.33 0.64L411.33 0.64Q412.54 1.28 413.12 2.18L413.12 2.18L413.12 2.18Q411.65 3.46 411.65 5.57L411.65 5.57L411.65 5.57Q411.65 8.32 414.21 8.32L414.21 8.32L414.21 8.32Q418.50 8.32 420.93-1.79L420.93-1.79L420.93-1.79Q421.63-4.54 422.21-7.30L422.21-7.30L422.21-7.30Q419.33-3.78 412.80-3.78L412.80-3.78L412.80-3.78Q408.26-3.78 405.63-5.95L405.63-5.95L405.63-5.95Q403.01-8.13 403.01-13.25L403.01-13.25L403.01-13.25Q403.01-16.45 404.10-20.06L404.10-20.06L404.10-20.06Q405.18-23.68 407.36-26.75ZM415.68-13.06L415.68-13.06L415.68-13.06Q415.68-8.70 417.92-8.70L417.92-8.70L417.92-8.70Q419.46-8.70 420.93-10.37L420.93-10.37L420.93-10.37Q422.08-11.71 422.53-13.70L422.53-13.70L425.79-30.14L425.79-30.14Q425.47-30.21 425.15-30.34L425.15-30.34L425.15-30.34Q424.51-30.59 423.68-30.59L423.68-30.59L423.68-30.59Q419.78-30.59 417.47-24.19L417.47-24.19L417.47-24.19Q415.68-19.20 415.68-13.06Z" fill="#a3d9ef"></path></g></g><style>text {
  font-size: 64px;
  font-family: Arial Black;
  dominant-baseline: central;
  text-anchor: middle;
}</style></svg>