<?xml version="1.0" standalone="no"?>
<!DOCTYPE svg PUBLIC "-//W3C//DTD SVG 20010904//EN"
 "http://www.w3.org/TR/2001/REC-SVG-20010904/DTD/svg10.dtd">
<svg version="1.0" xmlns="http://www.w3.org/2000/svg"
 width="440.000000pt" height="440.000000pt" viewBox="0 0 440.000000 440.000000"
 preserveAspectRatio="xMidYMid meet">
<metadata>
Created by potrace 1.11, written by Peter Selinger 2001-2013
</metadata>
<g transform="translate(0.000000,440.000000) scale(0.100000,-0.100000)"
fill="#000000" stroke="none">
<path d="M2175 3139 c-188 -27 -395 -108 -562 -220 -159 -106 -314 -287 -398
-465 -119 -251 -117 -630 4 -889 120 -255 323 -450 584 -561 116 -49 183 -68
312 -89 229 -38 632 6 817 88 44 20 61 34 76 64 49 96 107 317 95 361 -6 26
-43 38 -71 23 -10 -6 -39 -43 -62 -83 -65 -109 -214 -254 -311 -301 -181 -88
-434 -89 -618 -2 -103 49 -183 108 -274 204 -148 155 -247 353 -294 589 -24
119 -24 360 -1 457 90 373 352 654 670 719 176 36 434 11 566 -56 124 -63 184
-143 248 -335 14 -43 30 -86 35 -95 11 -21 59 -24 77 -6 16 16 15 150 -3 316
-19 184 -29 197 -179 232 -189 44 -324 60 -491 59 -88 -1 -187 -5 -220 -10z"/>
</g>
</svg>
